# xmcd
#
# Track frame offsets:
#	150
#	19445
#	39072
#	58125
#	74952
#	88515
#	113577
#	131197
#	152977
#	163875
#	182967
#	200000
#	219937
#	237462
#	257290
#
# Disc length: 3740 seconds
#
# Revision: 1
# Processed by: cddbd v1.5.2PL0 Copyright (c) Steve Scherf et al.
# Submitted via: audiograbber 1.83.01
#
DISCID=df0e9a0f
DTITLE=Three Day Band - Even In The Distances
DYEAR=1997
DGENRE=Contemporary Christian
TTITLE0=Even In The Distances
TTITLE1=They'll Know We Are Christians
TTITLE2=Give It Up
TTITLE3=You Give Us Peace
TTITLE4=Forty Days and Forty Nights
TTITLE5=Let the Children Be
TTITLE6=The Stillness Around
TTITLE7=Bitter Convictions
TTITLE8=Flash of Fire
TTITLE9=Life's Best Part
TTITLE10=Ain't Good Religion
TTITLE11=Were You There
TTITLE12=We'll All Rise Together
TTITLE13=Faith Is Still Strong
TTITLE14=Stand Stand Stand
EXTD=
EXTT0=
EXTT1=
EXTT2=
EXTT3=
EXTT4=
EXTT5=
EXTT6=
EXTT7=
EXTT8=
EXTT9=
EXTT10=
EXTT11=
EXTT12=
EXTT13=
EXTT14=
PLAYORDER=
